<?xml version="1.0" encoding="utf-8"?>
<!-- Generator: Adobe Illustrator 23.0.3, SVG Export Plug-In . SVG Version: 6.00 Build 0)  -->
<svg version="1.1" xmlns="http://www.w3.org/2000/svg" xmlns:xlink="http://www.w3.org/1999/xlink" x="0px" y="0px"
	 viewBox="0 0 750 500" style="enable-background:new 0 0 750 500;" xml:space="preserve">
<style type="text/css">
	.st0{display:none;}
	.st1{display:inline;fill:#D0E5AD;}
	.st2{display:inline;opacity:0.5;}
	.st3{clip-path:url(#SVGID_2_);fill:#564D9E;}
</style>
<g id="BACKGROUND" class="st0">
	<rect class="st1" width="750" height="500"/>
	<g class="st2">
		
			<image style="overflow:visible;" width="2434" height="492" xlink:href="81C562AA.png"  transform="matrix(0.24 0 0 0.24 82.92 376.56)">
		</image>
	</g>
</g>
<g id="OBJECTS">
	<g>
		<defs>
			<path id="SVGID_1_" d="M594.1-66.9l261.2,368.6c2.6,3.7,1.8,8.9-2,11.5L255.5,736.9c-3.7,2.6-8.9,1.8-11.5-2L207,682.8
				c47.4-53.4,176.2-29.5,173.5-140.5c-2-80-67-138.8-26-198.3c24.4-35.4,68.3-73.8,41.7-157c-10.4-32.7-48.3-89.6-10.7-116.2
				L582.5-68.9C586.3-71.5,591.4-70.7,594.1-66.9z"/>
		</defs>
		<clipPath id="SVGID_2_">
			<use xlink:href="#SVGID_1_"  style="overflow:visible;"/>
		</clipPath>
		<path class="st3" d="M113.9,64.6l555.7-3c5.6,0,10.2,1.8,10.2,4.1l1.9,364.2c0,2.3-4.5,4.1-10.2,4.2l-555.7,3
			c-5.6,0-10.2-1.8-10.2-4.1l-1.9-364.2C103.7,66.4,108.3,64.6,113.9,64.6z"/>
	</g>
</g>
</svg>
