<svg id="Layer_1" data-name="Layer 1" xmlns="http://www.w3.org/2000/svg" xmlns:xlink="http://www.w3.org/1999/xlink" viewBox="0 0 1968.4 1106.66"><defs><style>.cls-1{fill:none;}.cls-2{clip-path:url(#clip-path);}.cls-3{fill:#564d9e;}</style><clipPath id="clip-path" transform="translate(9.18 0)"><path class="cls-1" d="M1920.48,0V1080H-.48V913.57c178.42-37.28,412.26,179.37,571.12-33C685.1,727.4,636.36,530,810.08,472.75c103.4-34.09,252.28-47.8,320-239.82C1156.74,157.52,1161.75,0,1280,0Z"/></clipPath></defs><title>lateral-home</title><g class="cls-2"><g id="Grupo_1580" data-name="Grupo 1580"><path id="Caminho_2883" data-name="Caminho 2883" class="cls-3" d="M1959.22,19.57V1087.1c0,10.8-9.72,19.56-21.72,19.56H12.54c-12,0-21.72-8.77-21.72-19.56V19.57C-9.18,8.77.54,0,12.54,0h1925C1949.5,0,1959.22,8.77,1959.22,19.57Z" transform="translate(9.18 0)"/></g></g></svg>